<?xml version="1.0" encoding="UTF-8"?>
<svg id="Layer_2" data-name="Layer 2" xmlns="http://www.w3.org/2000/svg" viewBox="0 0 28 28">
  <defs>
    <style>
      .cls-1 {
        fill: #ff5722;
      }

      .cls-2 {
        fill: #1c0802;
      }
    </style>
  </defs>
  <g id="container-grid">
    <g>
      <path class="cls-1" d="M0,3.11C0,1.39,1.39,0,3.11,0H24.89c1.72,0,3.11,1.39,3.11,3.11V24.89c0,1.72-1.39,3.11-3.11,3.11H3.11c-1.72,0-3.11-1.39-3.11-3.11V3.11Z"/>
      <path class="cls-2" d="M2.33,2.33V25.67H25.67V2.33H2.33ZM13.76,19.44l-.59-2.26h-3.05l-.59,2.26h-2.36l3.46-11.06h2.04l3.48,11.06h-2.39Zm5.57,0h-2.16V11.23h2.16v8.22Zm-.23-9.52c-.21,.22-.49,.33-.85,.33s-.64-.11-.85-.33-.32-.49-.32-.82,.11-.61,.32-.82,.5-.32,.85-.32,.64,.11,.85,.32,.32,.49,.32,.82c0,.33-.1,.6-.31,.82Z"/>
      <path class="cls-2" d="M10.61,15.32h2.07l-1.03-3.94-1.03,3.94Z"/>
    </g>
  </g>
</svg>