<?xml version="1.0" encoding="UTF-8"?>
<svg id="Layer_2" data-name="Layer 2" xmlns="http://www.w3.org/2000/svg" viewBox="0 0 28 28">
  <defs>
    <style>
      .cls-1 {
        fill: #03a9f4;
      }

      .cls-2 {
        fill: #020f16;
      }
    </style>
  </defs>
  <g id="container-grid">
    <g>
      <path class="cls-1" d="M0,3.11C0,1.39,1.39,0,3.11,0H24.89c1.72,0,3.11,1.39,3.11,3.11V24.89c0,1.72-1.39,3.11-3.11,3.11H3.11c-1.72,0-3.11-1.39-3.11-3.11V3.11Z"/>
      <path class="cls-2" d="M10.9,10.25h-1.56v3.45h1.53c.43,0,.75-.14,.99-.42s.35-.68,.35-1.22-.12-.99-.36-1.32-.56-.49-.96-.5Z"/>
      <path class="cls-2" d="M2.33,2.33V25.67H25.67V2.33H2.33ZM13.51,14.61c-.64,.63-1.53,.94-2.67,.94h-1.49v3.89h-2.23V8.39h3.77c1.09,0,1.97,.34,2.62,1.02s.98,1.56,.98,2.64-.32,1.94-.97,2.57Zm7.25,4.31c-.55,.45-1.28,.67-2.17,.67-.6,0-1.13-.12-1.6-.35s-.82-.56-1.08-.98-.39-.87-.39-1.36h2.04c.01,.37,.1,.66,.26,.84s.43,.28,.81,.28c.58,0,.87-.26,.87-.78,0-.18-.09-.35-.26-.5s-.56-.36-1.17-.63c-.89-.36-1.49-.73-1.83-1.12s-.5-.86-.5-1.44c0-.72,.26-1.31,.78-1.78s1.21-.7,2.06-.7c.9,0,1.62,.23,2.16,.7,.54,.47,.81,1.09,.81,1.88h-2.15c0-.67-.28-1-.84-1-.23,0-.41,.07-.56,.21s-.22,.34-.22,.59c0,.18,.08,.34,.24,.48s.54,.34,1.15,.6c.88,.32,1.49,.69,1.86,1.08s.54,.91,.54,1.55c0,.73-.28,1.32-.83,1.77Z"/>
    </g>
  </g>
</svg>