<?xml version="1.0" encoding="UTF-8"?>
<svg id="Layer_2" data-name="Layer 2" xmlns="http://www.w3.org/2000/svg" viewBox="0 0 25.05 28">
  <defs>
    <style>
      .cls-1 {
        fill: #fff;
      }

      .cls-2 {
        fill: #e65100;
      }

      .cls-3 {
        fill: #ff6d00;
      }

      .cls-4 {
        fill: #eee;
      }
    </style>
  </defs>
  <g id="container-grid">
    <g>
      <path class="cls-2" d="M25.05,0H0L2.21,25.05l10.32,2.95,10.32-2.95L25.05,0h0Z"/>
      <path class="cls-3" d="M12.53,2.21V25.72l8.25-2.36,1.84-21.15H12.53Z"/>
      <path class="cls-1" d="M12.53,14.74v-2.95h6.34l-.52,8.47-5.82,1.92v-3.09l3.02-1.03,.22-3.32h-3.24Zm6.56-5.89l.22-2.95h-6.78v2.95h6.56Z"/>
      <path class="cls-4" d="M12.53,19.08v3.09l-5.82-1.92-.29-4.05h2.95l.15,1.84,3.02,1.03Zm-3.61-10.24h3.61v-2.95H5.82l.52,8.84h6.19v-2.95h-3.39l-.22-2.95Z"/>
    </g>
  </g>
</svg>