<?xml version="1.0" encoding="UTF-8"?>
<svg id="Layer_2" data-name="Layer 2" xmlns="http://www.w3.org/2000/svg" viewBox="0 0 28 28">
  <defs>
    <style>
      .cls-1 {
        fill: #ffd600;
      }

      .cls-2 {
        fill: #000001;
      }
    </style>
  </defs>
  <g id="container-grid">
    <g>
      <path class="cls-1" d="M0,28V0H28V28H0Z"/>
      <path class="cls-2" d="M18.31,20.96c.54,.87,1.12,1.71,2.36,1.71,1.04,0,1.59-.52,1.59-1.23,0-.86-.56-1.16-1.71-1.66l-.63-.27c-1.81-.77-3.02-1.73-3.02-3.77,0-1.87,1.43-3.3,3.68-3.3,1.6,0,2.74,.55,3.57,2l-1.96,1.25c-.43-.77-.9-1.07-1.62-1.07s-1.2,.46-1.2,1.07c0,.75,.47,1.05,1.54,1.52l.63,.27c2.14,.91,3.34,1.84,3.34,3.93,0,2.25-1.78,3.48-4.16,3.48s-3.66-1.17-4.39-2.62l1.97-1.31Zm-9.01,.06c.39,.7,.99,1.25,1.85,1.25s1.3-.33,1.3-1.59V12.44h2.59v8.63c0,2.62-1.52,3.81-3.74,3.81-2,0-3.45-1.36-4.04-2.62l2.04-1.25Z"/>
    </g>
  </g>
</svg>