<?xml version="1.0" encoding="UTF-8"?>
<svg id="Layer_2" data-name="Layer 2" xmlns="http://www.w3.org/2000/svg" viewBox="0 0 27.99 28">
  <g id="container-grid">
    <path d="M17.09,0c-.07,0-.13,.03-.2,.06-.55,.27-1.17,1.08-1.29,1.24,0,0-.01,.02-.02,.03-.61,.92-.94,2-.95,3.12,0,.84,.16,1.67,.49,2.48,.78,1.86,2.39,3.4,4.3,4.12,.06,.02,.13,.04,.24,.08,0,0,.1,.03,.12,.04l.07,.02c.1,.03,.2,.06,.3,.08,.5,.1,1,.16,1.46,.17,.08,0,.16,0,.24,0,3.49,0,4.84-2.46,5.29-3.28,.04-.08,.08-.14,.11-.18t0,0c.2-.29,.12-.69-.17-.88-.29-.2-.68-.12-.88,.17h0c-.93,1.37-2.52,1.78-4.73,1.24-.16-.04-.34-.1-.5-.16-.21-.07-.42-.16-.61-.26-.39-.19-.75-.42-1.08-.67-1.94-1.5-2.7-4.63-1.56-6.44,.15-.24,.12-.55-.07-.77-.14-.16-.35-.23-.56-.2Zm-5.64,1.27c-.14,0-.29,.04-.41,.14-.96,.78-1.95,2.07-1.99,2.12,0,0,0,.02-.02,.03-1.74,2.53-1.87,6.14-.33,9.18,.24,.48,.51,.94,.81,1.36l.09,.12c.25,.36,.52,.77,.87,1.09,.12,.14,.25,.27,.38,.4l.06,.06,.05,.05c.13,.13,.27,.26,.41,.38h0s.02,.02,.04,.04c.16,.14,.32,.27,.53,.44l.06,.04c.16,.13,.33,.26,.5,.38l.05,.04c.06,.04,.12,.08,.18,.12l.06,.04,.07,.04c.13,.08,.25,.16,.43,.26,.11,.07,.24,.14,.32,.18,.03,.02,.07,.04,.16,.09l.19,.1s.05,.02,.06,.03c.13,.06,.26,.13,.39,.19l.2,.09c.13,.06,.27,.11,.43,.17l.07,.03s.07,.03,.07,.03c.12,.04,.24,.08,.36,.12l.28,.09c.14,.05,.3,.1,.48,.13,.87,.14,1.71,.22,2.51,.22,.09,0,.19,0,.28,0,7.02-.15,8.85-6.12,8.87-6.18,.09-.3-.05-.62-.34-.76s-.62-.04-.8,.22c-1.78,2.6-5.15,3.7-8.57,2.79-.16-.04-.31-.08-.5-.15-.03,0-.06-.02-.11-.04-.11-.03-.22-.07-.35-.12l-.18-.07c-.1-.04-.2-.08-.33-.13l-.08-.04c-.15-.06-.3-.14-.43-.2l-.36-.19c-.08-.04-.15-.08-.27-.15l-.06-.03-.06-.04c-.09-.05-.18-.11-.27-.17l-.06-.04s-.05-.04-.06-.04c-.07-.05-.15-.09-.22-.14-.15-.11-.31-.22-.48-.36l-.07-.06c-1.64-1.31-2.85-3.06-3.42-4.94-.53-1.72-.14-3.98,1.05-6.03,.15-.27,.1-.6-.14-.8-.12-.1-.26-.15-.41-.15Zm-7,1.91c-.15,0-.31,.05-.43,.16-1.22,1.09-2.13,2.51-2.22,2.67C-.8,9.8-.3,15.68,1.49,19.28c.03,.07,.07,.15,.11,.22l.02,.04c.03,.07,.07,.15,.08,.16,.02,.05,.05,.1,.06,.11,.03,.06,.06,.12,.11,.21l.2,.35s.06,.1,.07,.11c.04,.06,.08,.13,.12,.2l.1,.16s.06,.09,.08,.11c.1,.15,.2,.31,.31,.45,0,0,0,.01,.01,.02l.04,.05c.09,.13,.18,.25,.26,.36l.36,.46s.04,.05,.05,.06l.05,.06c.11,.13,.23,.27,.34,.4,.02,.02,.03,.04,.05,.06,.11,.12,.23,.24,.35,.37l.11,.11c.09,.1,.19,.2,.29,.29,0,0,.05,.05,.05,.05l.1,.09c.12,.11,.24,.23,.34,.31,0,0,.09,.08,.1,.09,.12,.1,.23,.2,.35,.3l.61,.48c.1,.07,.21,.15,.33,.24,.04,.03,.08,.06,.12,.09,.02,.01,.04,.03,.05,.04l.46,.31c.17,.11,.33,.21,.54,.33l.11,.06c.13,.07,.26,.15,.38,.21,.07,.04,.14,.07,.21,.11,.09,.05,.18,.1,.33,.17,.01,0,.11,.06,.13,.06,.14,.07,.29,.14,.47,.22,0,0,.06,.03,.06,.03,.17,.07,.33,.14,.55,.23,.03,.01,.07,.03,.08,.03,.15,.06,.32,.12,.45,.17,.01,0,.08,.03,.09,.04,.18,.06,.35,.12,.57,.19,.04,.01,.08,.02,.08,.02l.13,.04c.15,.05,.31,.1,.47,.13,1.18,.22,2.34,.33,3.43,.33h0c9.12,0,12.02-7.34,12.05-7.41,.11-.3,0-.63-.29-.78-.27-.15-.62-.08-.82,.17-2.34,3.08-6.75,4.22-11.8,3.06-.12-.03-.25-.06-.37-.1l-.24-.07c-.16-.05-.32-.1-.48-.16,0,0-.07-.03-.07-.03-.14-.05-.28-.1-.4-.15l-.14-.05c-.15-.06-.31-.13-.46-.19l-.09-.04c-.13-.06-.26-.12-.39-.19,0,0-.11-.05-.12-.06-.09-.04-.18-.09-.29-.15l-.52-.28c-.05-.03-.11-.07-.16-.09-.16-.1-.32-.19-.48-.3-.04-.02-.07-.05-.13-.09-.11-.07-.22-.14-.37-.25l-.06-.04c-.11-.07-.21-.15-.3-.22-.05-.04-.11-.08-.2-.15-.08-.06-.16-.12-.23-.18l-.14-.11c-.12-.09-.23-.19-.34-.29-.01-.01-.03-.02-.04-.04-.13-.12-.26-.23-.41-.38l-.45-.45c-.11-.11-.22-.23-.34-.36-.11-.13-.22-.25-.37-.43l-.27-.33s-.07-.09-.11-.14c-.09-.12-.18-.25-.28-.38-2.48-3.41-3.12-10.53-1.19-13.14,.19-.26,.16-.63-.08-.85-.12-.11-.27-.16-.43-.16Z"/>
  </g>
</svg>